<svg xmlns="http://www.w3.org/2000/svg" width="94" height="28" viewBox="0 0 94 28">
    <g fill="none" fill-rule="evenodd">
        <g>
            <g fill="#FC2067">
                <g>
                    <path d="M32.99 8.73l.221.027c.214.034.395.193.542.475.144.283.173.52.088.715-.056.273-.182.655-.377 1.144l-.088.217c-.241.596-.392 1.056-.455 1.38-.118.614-.121 1.433-.02 2.455l.076.765c.085.907.12 1.37.115 1.39-.122.544-.48.926-1.067 1.144-.45.159-.915.2-1.397.124-.507-.08-.936-.264-1.29-.55-.466-.374-.675-.857-.62-1.447.008-.08.211-.54.623-1.38.429-.837.713-1.659.842-2.468.055-.372.064-.745.025-1.12-.036-.144-.096-.315-.18-.513-.128-.101-.25-.207-.368-.318-.118-.11-.165-.297-.139-.558.054-.545.535-.958 1.458-1.238.74-.22 1.412-.302 2.011-.245zm-.446-5.278c.476.075.684.291.975.757.292.465.369 1.134.304 1.542-.084.53-.3.874-.88 1.174-.509.274-1.012.372-1.51.293-.43-.069-.778-.238-1.041-.507-.3-.327-.414-.718-.342-1.176.076-.481.553-1.186 1.033-1.582.48-.395.985-.577 1.461-.501zM24.636 18.284c1.516.053 2.327-.515 2.434-1.704.011-.122-.03-.292-.126-.507l-.187-.39c-.07-.152-.115-.27-.135-.352-.121-.644-.235-1.432-.342-2.365l-.09-.834c-.161-1.428-.118-5.798-.077-6.545l.014-.257.705-3.553c.105-.476-.033-.718-.414-.727-.897-.021-1.818.226-2.75.743-.699.4-1.04.844-1.034 1.334.004.281.083.473.235.575l.456.305c.242.239.36.842.354 1.81 0 .024.005.042.016.055l-.009.443c-.038 1.222-.205 4.555-.36 5.865l-.019.153c-.169 1.323-.332 2.33-.494 3.023-.023.088-.082.213-.177.376l-.079.13c-.112.18-.166.35-.163.508.014.686.289 1.19.818 1.515.375.246.849.379 1.424.399zM17.393 7.143c1.242 0 2.061.302 2.458.904.249.393.502.817.502 1.376 0 .56-.112.785-.197 1.122-.084.337.03.814.366 1.476.14.276.338.83.45 1.33.113.498.197 1.388.113 1.809-.085.421-.252 1.15-.858 1.817-.487.537-.978.844-1.735.878-.336.015-.677-.06-1.025-.224-.347-.165-.583-.245-.708-.24-.173.008-.444.072-.81.194-.366.123-.649.189-.847.197-.696.031-1.28-.22-1.751-.757-.472-.538-.708-1.17-.708-1.892 0-1.066.372-2.013 1.118-2.84.707-.77 1.583-1.281 2.626-1.535.124-.015.307-.067.55-.158.242-.09.363-.316.363-.677 0-.833-.457-1.152-.929-1.15-.285.003-.53.158-.735.466-.205.31-.595.657-.78.948-.286.318-.473.301-.667.34-.114.022-.36-.05-.503-.237-.143-.188-.228-.551-.217-.791.019-.417.736-1.414 1.372-1.828.708-.46 1.596-.528 2.552-.528zm-.07 5.197c-.089-.084-.164-.073-.263-.071-.415.009-1.107.26-1.34.625-.231.366-.355.824-.355 1.224 0 .848.527 1.197 1.157 1.176.232-.008.578-.235.801-.457.223-.223.445-.788.445-1.046s.045-.43-.089-.9c-.133-.47-.267-.467-.356-.551zM6.919.967C8.189.62 9.42.763 10.611 1.39c1.191.63 1.962 1.607 2.312 2.933.514 1.95.36 3.463-.46 4.54-.415.56-1.18 1.109-2.296 1.647l-.286.134c-.975.433-1.412.844-1.309 1.234.189.715.6 1.587 1.236 2.616l.58.925c.484.783.756 1.287.815 1.512.247.936-.698 1.695-2.836 2.277-.807.22-1.588.324-2.344.312-1.125-.012-1.767-.322-1.927-.93-.035-.13-.021-.3.04-.508l.044-.13c.097-.268.144-.47.141-.602-.037-.626-.214-1.873-.531-3.743l-.21-1.21c-.208-1.147-.402-2.11-.583-2.889-.139-.647-.35-1.208-.636-1.683l-.44-.482c-.223-.056-.444-.121-.664-.195-.22-.074-.377-.29-.472-.65-.164-.623.117-1.319.844-2.085.804-.838 1.748-1.571 2.831-2.2l.467-.271c.965-.552 1.63-.877 1.992-.976zm1.079 3.155c-.516-.046-1.004.015-1.525.274l-.197.106c-.6.289-.38 1.208.483 3.113.146.323.356.585.63.785.36.241.7.285 1.019.132.544-.261.934-.785 1.247-1.349.277-.498.453-1.646.214-2.173-.24-.528-1.29-.836-1.871-.888z" transform="translate(3 1) translate(0 5.286)"/>
                </g>
                <path fill-rule="nonzero" d="M36.763 7.9c.352-.078.715-.18 1.09-.305.376-.126.701-.267.976-.424.158-.06.271-.173.342-.341.07-.168.099-.346.086-.533-.012-.188-.063-.367-.153-.537-.09-.17-.212-.287-.367-.353-.252-.011-.459-.008-.622.01-.163.018-.309.044-.437.077-.096.026-.192.053-.288.082l-.095.03c-.126.041-.282.083-.467.125.14-.234.306-.479.496-.732.19-.254.36-.539.51-.853.148-.315.258-.667.327-1.056.07-.39.053-.84-.05-1.354-.011-.184-.069-.359-.174-.525-.104-.167-.234-.316-.389-.447-.154-.132-.327-.24-.518-.324-.19-.084-.381-.136-.572-.154-.32-.074-.663-.049-1.027.074-.365.123-.69.303-.978.54-.287.238-.511.508-.671.81-.16.3-.195.596-.104.887.06.227.144.38.252.46.108.08.232.112.372.096.14-.017.286-.068.437-.154.121-.068.24-.138.355-.21l.19-.121c.103-.065.199-.123.289-.176.12-.07.215-.106.284-.107.063.001.137.037.223.106.086.07.128.132.125.187.069.163.051.39-.053.678-.105.288-.248.603-.43.945-.182.341-.373.693-.573 1.054-.2.361-.363.696-.486 1.005-.048.127-.066.27-.053.426.013.157.048.308.105.454.057.147.133.28.227.403.094.122.203.216.327.28.089.08.272.116.55.107.278-.01.592-.053.944-.13z" transform="translate(3 1)"/>
            </g>
            <g fill="#FC2067" fill-rule="nonzero">
                <path d="M9.527 1.18l1.425.395-.021.61c-.013.293-.031.566-.054.82l-.03.309 1.333-.344 2.106 10.424-2.208.541-.05-.534-1.358.272.061.383-2.28.55L8.1 9.608l-.635.258.738 4.83-2.27.504-.349-4.608-.483.194.391 2.007-2.084.602-.046-.37-.577.131.074.486-2.053.507L0 3.7l3.535-.944 1.25 6.403.645-.409-.167-2.185-.633.153-.478-1.532.973-.45-.233-2.957 1.328-.043.356 2.312.742-.331.442 1.476-.072-1.057 1.065-.295c.305-.68.538-1.43.7-2.247l.074-.414zm2.052 7.985l-1.578.359.407 2.486 1.403-.608-.232-2.237zM1.52 5.21l.974 6.167.657-.306-.688-5.842-.944-.019zm6.3.697l-.912.247.232 1.532.54-.321.315.801-.176-2.259zm1.506-.59l.421 2.604 1.619-.739-.226-2.073-1.814.208zM23.335 3.558l-.117 5.35-1.419.153.006-.281-.498.04.066.874 1.612-.32-.082 1.622-1.456.03.042.646 2.06-.275-.265 1.26-5.67.68-.212-1.07 2.413-.357.028-.74-1.35.117-.201-.997 1.601-.32.043-1.033-.447.04.015.26-1.555.079.086-5.005 5.3-.753zm-5.855.936l.588 7.076-1.579.288.005-.292-.473.05.016.344-.67.163-.688-3.183.004-4.053 2.797-.393zm-1.81 1.5l.28 4.425.551-.177.048-4.18-.878-.067zm4.355 1.065l-.66.043.057.917.557-.125.046-.835zm1.819-.115l-.64.043.03.614.599-.125.01-.532zM19.23 5.207l.068.979.77-.149.027-.824-.865-.006zm1.872.02l.03.604.74-.138.013-.459-.783-.007zM33.898 0l1.255.495c-.061.48-.13.91-.204 1.29l-.057.278 1.244-.185.583 6.77-.444 2.907-1.278.267.004-.49-1.258.118.02.353-2.122.281.156-4.57-.6.173.208 4.456-2.109.24.124-4.216-.458.13.164 1.86-1.95.347.024-.488-1.127.232.008.424-1.339.268.267-9.561 3.298-.52.524 5.932.625-.31.057-2-.59.079-.287-1.437.926-.315.071-2.706 1.21.087.102 2.133.705-.23.26 1.382.036-.966.995-.167c.342-.588.625-1.246.85-1.972L33.898 0zm1.101 7.444l-1.467.175.132 2.296 1.331-.418L35 7.444zm-8.756-4.55l-.058 5.655.98-.18-.067-5.368-.855-.108zm5.653 1.233l-.851.137.064 1.413.52-.24.21.757.057-2.067zm1.424-.392l.133 2.404 1.54-.516-.007-1.903-1.666.015zM47.88 3.75l-.258 5.515-1.747.018.042-.298-.522-.021-.045.937 1.716-.133.098 1.614-1.91-.055-.041.691 2.176-.029.227 1.41-8.162-.22.365-1.165 3.623.043.126-.784-1.42-.048-.078-1.085 1.706-.135.179-1.092-.47-.015-.018.278-1.626-.115.74-5.307 5.3-.004zm-5.985.121l-.293 7.565-1.724.098.043-.308-.512-.01-.027.366-1.75.028 1.223-7.69 3.04-.049zm-2.129 1.351L39.49 9.94l.612-.114.595-4.417-.93-.187zm4.526 1.707L43.6 6.89l-.06.981.595-.06.157-.882zm1.904.11l-.67-.036-.048.657.638-.056.08-.564zm-2.49-2.18l-.056 1.05.82-.06.134-.872-.898-.117zm1.943.261l-.047.646.787-.052.073-.486-.813-.108z" transform="translate(3 1) translate(39 10)"/>
            </g>
        </g>
        <path fill="#000" fill-rule="nonzero" d="M59.836 10.031V7.59c.124.17.27.297.437.383.168.086.359.13.574.13.55 0 .978-.214 1.284-.643.306-.428.459-.993.459-1.696v-.65c0-.748-.153-1.351-.46-1.809-.305-.457-.736-.686-1.293-.686-.228 0-.429.054-.603.161-.174.108-.325.26-.452.46l-.049-.523H58.45v7.314h1.387zm.644-3.037c-.153 0-.282-.03-.388-.088-.106-.058-.191-.146-.256-.263v-2.49c.065-.134.151-.237.259-.31.107-.074.234-.11.38-.11.251 0 .435.126.552.378.118.252.176.587.176 1.003v.65c0 .384-.056.685-.168.903-.113.218-.297.327-.555.327zm4.497 1.109c.248 0 .465-.065.652-.193.187-.129.346-.3.476-.515.016.107.04.213.07.317.032.104.067.2.106.288h1.377c-.075-.218-.13-.44-.166-.664-.036-.225-.054-.467-.054-.728V4.47c0-.593-.172-1.05-.515-1.37-.343-.32-.79-.48-1.34-.48-.583 0-1.053.16-1.41.483-.356.322-.526.712-.51 1.171l.015.03 1.343.005c0-.212.04-.373.117-.484.078-.11.196-.166.352-.166.185 0 .325.07.417.208.093.138.14.336.14.593v.43h-.523c-.658 0-1.153.143-1.487.43-.333.286-.5.688-.5 1.205 0 .479.13.861.393 1.148.262.286.611.43 1.047.43zm.4-1.045c-.14 0-.25-.056-.331-.166-.082-.111-.123-.254-.123-.43 0-.225.048-.41.142-.557.094-.146.247-.22.459-.22h.522v.972c-.068.117-.161.213-.28.288-.12.075-.248.113-.388.113zm4.79.942V.383H68.78V8h1.387zm2.817-6.558V.382h-1.387v1.06h1.387zm0 6.558V2.717h-1.387V8h1.387zm2.754 2.031V7.59c.123.17.27.297.437.383.167.086.359.13.573.13.55 0 .979-.214 1.285-.643.306-.428.459-.993.459-1.696v-.65c0-.748-.153-1.351-.46-1.809-.305-.457-.737-.686-1.293-.686-.228 0-.43.054-.603.161-.175.108-.325.26-.452.46l-.049-.523h-1.284v7.314h1.387zm.644-3.037c-.153 0-.282-.03-.388-.088-.106-.058-.191-.146-.256-.263v-2.49c.065-.134.151-.237.258-.31.108-.074.235-.11.381-.11.251 0 .435.126.552.378.117.252.176.587.176 1.003v.65c0 .384-.056.685-.169.903-.112.218-.297.327-.554.327zm4.497 1.109c.247 0 .465-.065.652-.193.187-.129.346-.3.476-.515.016.107.04.213.07.317.032.104.067.2.106.288h1.377c-.075-.218-.13-.44-.166-.664-.036-.225-.054-.467-.054-.728V4.47c0-.593-.172-1.05-.515-1.37-.344-.32-.79-.48-1.34-.48-.583 0-1.053.16-1.41.483-.356.322-.526.712-.51 1.171l.015.03 1.343.005c0-.212.039-.373.117-.484.078-.11.195-.166.352-.166.185 0 .324.07.417.208.093.138.14.336.14.593v.43h-.523c-.658 0-1.153.143-1.487.43-.334.286-.5.688-.5 1.205 0 .479.13.861.393 1.148.262.286.61.43 1.047.43zm.4-1.045c-.14 0-.25-.056-.332-.166-.081-.111-.122-.254-.122-.43 0-.225.047-.41.142-.557.094-.146.247-.22.459-.22h.522v.972c-.068.117-.162.213-.28.288-.12.075-.249.113-.389.113zM86.07 8V.383h-1.387V8h1.387zm2.817-6.558V.382h-1.387v1.06h1.387zm0 6.558V2.717h-1.387V8h1.387z" opacity=".454"/>
    </g>
</svg>
