<?xml version="1.0" encoding="UTF-8"?>
<svg width="64px" height="64px" viewBox="0 0 64 64" version="1.1" xmlns="http://www.w3.org/2000/svg" xmlns:xlink="http://www.w3.org/1999/xlink">
    <!-- Generator: Sketch 54.1 (76490) - https://sketchapp.com -->
    <title>CDN加速</title>
    <desc>Created with Sketch.</desc>
    <defs>
        <linearGradient x1="50%" y1="33.6734694%" x2="57.5938899%" y2="65.4336037%" id="linearGradient-1">
            <stop stop-color="#3D1BFF" offset="0%"></stop>
            <stop stop-color="#00A7E7" offset="100%"></stop>
        </linearGradient>
        <linearGradient x1="50%" y1="17.3458726%" x2="57.5938899%" y2="80.8682153%" id="linearGradient-2">
            <stop stop-color="#3D1BFF" offset="0%"></stop>
            <stop stop-color="#00A7E7" offset="100%"></stop>
        </linearGradient>
    </defs>
    <g id="CDN加速" stroke="none" stroke-width="1" fill="none" fill-rule="evenodd">
        <g id="编组" transform="translate(0.000000, 10.000000)" fill-rule="nonzero">
            <path d="M37.5857864,29 L46.5857864,20 L49,20 C49.5522847,20 50,20.4477153 50,21 C50,21.5522847 49.5522847,22 49,22 L47.4142136,22 L39.4142136,30 L47.4142136,38 L63,38 C63.5522847,38 64,38.4477153 64,39 C64,39.5522847 63.5522847,40 63,40 L46.5857864,40 L37.5857864,31 L30,31 C29.4477153,31 29,30.5522847 29,30 C29,29.4477153 29.4477153,29 30,29 L37.5857864,29 Z M53,22 C52.4477153,22 52,21.5522847 52,21 C52,20.4477153 52.4477153,20 53,20 L57,20 C57.5522847,20 58,20.4477153 58,21 C58,21.5522847 57.5522847,22 57,22 L53,22 Z M45,31 C44.4477153,31 44,30.5522847 44,30 C44,29.4477153 44.4477153,29 45,29 L49,29 C49.5522847,29 50,29.4477153 50,30 C50,30.5522847 49.5522847,31 49,31 L45,31 Z M53,31 C52.4477153,31 52,30.5522847 52,30 C52,29.4477153 52.4477153,29 53,29 L60.5,29 C61.0522847,29 61.5,29.4477153 61.5,30 C61.5,30.5522847 61.0522847,31 60.5,31 L53,31 Z M61,22 C60.4477153,22 60,21.5522847 60,21 C60,20.4477153 60.4477153,20 61,20 L62,20 C62.5522847,20 63,20.4477153 63,21 C63,21.5522847 62.5522847,22 62,22 L61,22 Z" id="形状结合" fill="url(#linearGradient-1)"></path>
            <path d="M13,14 C5.82029825,14 -3.55271368e-14,19.8202983 -3.55271368e-14,27 C-3.55271368e-14,34.1797017 5.82029825,40 13,40 L34,40 C34.5522847,40 35,39.5522847 35,39 C35,38.4477153 34.5522847,38 34,38 L13,38 C6.92486775,38 2,33.0751322 2,27 C2,20.9248678 6.92486775,16 13,16 C13.8069629,16 14.6019922,16.0867253 15.3758632,16.257028 L16.3201831,16.4648406 L16.5596367,15.5280438 C18.579229,7.62694074 25.7283308,2 34,2 C39.3595183,2 44.3336113,4.35487122 47.7339979,8.36421491 C48.0912232,8.78541381 48.7222607,8.83727465 49.1434596,8.48004933 C49.5646585,8.12282401 49.6165194,7.49178649 49.259294,7.07058759 C45.4828324,2.61781953 39.953325,0 34,0 C25.125773,0 17.4153285,5.82809774 14.874065,14.1342107 C14.257205,14.0450846 13.6313752,14 13,14 Z" id="路径" fill="url(#linearGradient-2)"></path>
        </g>
    </g>
</svg>