<?xml version="1.0" encoding="UTF-8"?>
<svg width="64px" height="64px" viewBox="0 0 64 64" version="1.1" xmlns="http://www.w3.org/2000/svg" xmlns:xlink="http://www.w3.org/1999/xlink">
    <!-- Generator: Sketch 54.1 (76490) - https://sketchapp.com -->
    <title>CDN加速-H</title>
    <desc>Created with Sketch.</desc>
    <defs>
        <linearGradient x1="9.86116187%" y1="43.1303399%" x2="100%" y2="62.051953%" id="linearGradient-1">
            <stop stop-color="#1E87F0" offset="0%"></stop>
            <stop stop-color="#40BCF9" stop-opacity="0" offset="100%"></stop>
        </linearGradient>
        <linearGradient x1="50%" y1="33.6734694%" x2="57.5938899%" y2="65.4336037%" id="linearGradient-2">
            <stop stop-color="#3D1BFF" offset="0%"></stop>
            <stop stop-color="#00A7E7" offset="100%"></stop>
        </linearGradient>
    </defs>
    <g id="CDN加速-H" stroke="none" stroke-width="1" fill="none" fill-rule="evenodd">
        <g id="编组" transform="translate(0.000000, 10.000000)">
            <g id="编组-4复制-4" fill="url(#linearGradient-1)">
                <path d="M14.8740145,14.1340753 C17.3807937,5.95070254 24.9954663,0 34,0 C45.045695,0 54,8.954305 54,20 C54,31.045695 45.045695,40 34,40 L13,40 C5.82029825,40 0,34.1797017 0,27 C0,19.8202983 5.82029825,14 13,14 C13.6363871,14 14.2620941,14.0457273 14.8740145,14.1340753 Z" id="形状结合复制"></path>
            </g>
            <path d="M37.5857864,29 L46.5857864,20 L49,20 C49.5522847,20 50,20.4477153 50,21 C50,21.5522847 49.5522847,22 49,22 L47.4142136,22 L39.4142136,30 L47.4142136,38 L63,38 C63.5522847,38 64,38.4477153 64,39 C64,39.5522847 63.5522847,40 63,40 L46.5857864,40 L37.5857864,31 L30,31 C29.4477153,31 29,30.5522847 29,30 C29,29.4477153 29.4477153,29 30,29 L37.5857864,29 Z M53,22 C52.4477153,22 52,21.5522847 52,21 C52,20.4477153 52.4477153,20 53,20 L57,20 C57.5522847,20 58,20.4477153 58,21 C58,21.5522847 57.5522847,22 57,22 L53,22 Z M45,31 C44.4477153,31 44,30.5522847 44,30 C44,29.4477153 44.4477153,29 45,29 L49,29 C49.5522847,29 50,29.4477153 50,30 C50,30.5522847 49.5522847,31 49,31 L45,31 Z M53,31 C52.4477153,31 52,30.5522847 52,30 C52,29.4477153 52.4477153,29 53,29 L60.5,29 C61.0522847,29 61.5,29.4477153 61.5,30 C61.5,30.5522847 61.0522847,31 60.5,31 L53,31 Z M61,22 C60.4477153,22 60,21.5522847 60,21 C60,20.4477153 60.4477153,20 61,20 L62,20 C62.5522847,20 63,20.4477153 63,21 C63,21.5522847 62.5522847,22 62,22 L61,22 Z" id="形状结合" fill="url(#linearGradient-2)" fill-rule="nonzero"></path>
        </g>
    </g>
</svg>