<?xml version="1.0" encoding="UTF-8"?>
<svg width="64px" height="64px" viewBox="0 0 64 64" version="1.1" xmlns="http://www.w3.org/2000/svg" xmlns:xlink="http://www.w3.org/1999/xlink">
    <!-- Generator: Sketch 54.1 (76490) - https://sketchapp.com -->
    <title>数据蜂巢</title>
    <desc>Created with Sketch.</desc>
    <defs>
        <linearGradient x1="50%" y1="14.4042969%" x2="57.5938899%" y2="83.6489109%" id="linearGradient-1">
            <stop stop-color="#3D1BFF" offset="0%"></stop>
            <stop stop-color="#00A7E7" offset="100%"></stop>
        </linearGradient>
        <linearGradient x1="50%" y1="17.3458726%" x2="57.5938899%" y2="80.8682153%" id="linearGradient-2">
            <stop stop-color="#3D1BFF" offset="0%"></stop>
            <stop stop-color="#00A7E7" offset="100%"></stop>
        </linearGradient>
    </defs>
    <g id="数据蜂巢" stroke="none" stroke-width="1" fill="none" fill-rule="evenodd">
        <g id="编组" transform="translate(0.000000, 10.000000)" fill-rule="nonzero">
            <path d="M58,26 L58,32 C58,32.7025257 57.6314023,33.3535394 57.0289915,33.7149859 L52.0289915,36.7149859 C51.3956267,37.0950047 50.6043733,37.0950047 49.9710085,36.7149859 L45,33.7323808 L40.0289915,36.7149859 C39.3956267,37.0950047 38.6043733,37.0950047 37.9710085,36.7149859 L32.9710085,33.7149859 C32.3685977,33.3535394 32,32.7025257 32,32 L32,26 C32,25.2974743 32.3685977,24.6464606 32.9710085,24.2850141 L37.9710085,21.2850141 C38.6043733,20.9049953 39.3956267,20.9049953 40.0289915,21.2850141 L45,24.2676192 L49.9710085,21.2850141 C49.9861603,21.2759231 50.0014024,21.2670495 50.0167306,21.2583934 C50.0056624,21.1733558 50,21.0870735 50,21 L50,15 C50,14.2974743 50.3685977,13.6464606 50.9710085,13.2850141 L55.9710085,10.2850141 C56.6043733,9.90499528 57.3956267,9.90499528 58.0289915,10.2850141 L63.0289915,13.2850141 C63.6314023,13.6464606 64,14.2974743 64,15 L64,21 C64,21.7025257 63.6314023,22.3535394 63.0289915,22.7149859 L58.0289915,25.7149859 C58.0138397,25.7240769 57.9985976,25.7329505 57.9832694,25.7416066 C57.9943376,25.8266442 58,25.9129265 58,26 Z M46,26 L46,32 L51,35 L56,32 L56,26 L51,23 L46,26 Z M44,26 L39,23 L34,26 L34,32 L39,35 L44,32 L44,26 Z M57,12 L52,15 L52,21 L57,24 L62,21 L62,15 L57,12 Z" id="形状结合" fill="url(#linearGradient-1)"></path>
            <path d="M13,14 C5.82029825,14 -2.84217094e-14,19.8202983 -2.84217094e-14,27 C-2.84217094e-14,34.1797017 5.82029825,40 13,40 L34,40 C34.5522847,40 35,39.5522847 35,39 C35,38.4477153 34.5522847,38 34,38 L13,38 C6.92486775,38 2,33.0751322 2,27 C2,20.9248678 6.92486775,16 13,16 C13.8069629,16 14.6019922,16.0867253 15.3758632,16.257028 L16.3201831,16.4648406 L16.5596367,15.5280438 C18.579229,7.62694074 25.7283308,2 34,2 C39.3595183,2 44.3336113,4.35487122 47.7339979,8.36421491 C48.0912232,8.78541381 48.7222607,8.83727465 49.1434596,8.48004933 C49.5646585,8.12282401 49.6165194,7.49178649 49.259294,7.07058759 C45.4828324,2.61781953 39.953325,0 34,0 C25.125773,0 17.4153285,5.82809774 14.874065,14.1342107 C14.257205,14.0450846 13.6313752,14 13,14 Z" id="路径" fill="url(#linearGradient-2)"></path>
        </g>
    </g>
</svg>