<?xml version="1.0" encoding="UTF-8"?>
<svg width="64px" height="64px" viewBox="0 0 64 64" version="1.1" xmlns="http://www.w3.org/2000/svg" xmlns:xlink="http://www.w3.org/1999/xlink">
    <!-- Generator: Sketch 54.1 (76490) - https://sketchapp.com -->
    <title>ATD-H</title>
    <desc>Created with Sketch.</desc>
    <defs>
        <linearGradient x1="9.86116187%" y1="43.1303399%" x2="100%" y2="62.051953%" id="linearGradient-1">
            <stop stop-color="#1E87F0" offset="0%"></stop>
            <stop stop-color="#40BCF9" stop-opacity="0" offset="100%"></stop>
        </linearGradient>
        <linearGradient x1="50%" y1="0%" x2="56.5572866%" y2="97.2654113%" id="linearGradient-2">
            <stop stop-color="#3D1BFF" offset="0%"></stop>
            <stop stop-color="#00A7E7" offset="100%"></stop>
        </linearGradient>
    </defs>
    <g id="ATD-H" stroke="none" stroke-width="1" fill="none" fill-rule="evenodd">
        <g id="编组" transform="translate(0.000000, 10.000000)">
            <g id="编组-4复制-4" fill="url(#linearGradient-1)">
                <path d="M14.8740145,14.1340753 C17.3807937,5.95070254 24.9954663,0 34,0 C45.045695,0 54,8.954305 54,20 C54,31.045695 45.045695,40 34,40 L13,40 C5.82029825,40 0,34.1797017 0,27 C0,19.8202983 5.82029825,14 13,14 C13.6363871,14 14.2620941,14.0457273 14.8740145,14.1340753 Z" id="形状结合复制"></path>
            </g>
            <path d="M50.0204719,37.9452177 C56.8749815,35.7107794 60.5312437,29.5171014 60.9768567,19.1309695 L50.0100576,14.1045199 L39.0440671,19.1305989 C39.5025407,29.5166429 43.1654528,35.7106793 50.0204719,37.9452177 Z M49.4703236,12.1518348 C49.6311753,12.0515405 49.8186997,11.9980344 50.0100576,11.9997995 C50.2014155,11.9980344 50.3889398,12.0515405 50.5497915,12.1518348 L63.0193139,17.8670326 L62.9998325,18.5293991 C62.6577116,30.16151 58.4891691,37.3688178 50.4807328,39.8979778 C50.3396058,39.9671735 50.1820545,40.0034017 50.0204742,40.0000516 C49.8588948,40.0034017 49.7013443,39.9671738 49.5602178,39.8979788 C41.5521834,37.36898 37.3766829,30.1623286 37.0203193,18.5306229 L37,17.8673998 L49.4703236,12.1518348 Z M49.0002648,22.2156047 C49.0002648,21.66332 49.44798,21.2156047 50.0002648,21.2156047 C50.5525495,21.2156047 51.0002648,21.66332 51.0002648,22.2156047 L51.0002648,28 C51.0002648,28.5522847 50.5525495,29 50.0002648,29 C49.44798,29 49.0002648,28.5522847 49.0002648,28 L49.0002648,22.2156047 Z" id="形状结合" fill="url(#linearGradient-2)" fill-rule="nonzero"></path>
        </g>
    </g>
</svg>