<?xml version="1.0" encoding="UTF-8"?>
<svg width="64px" height="64px" viewBox="0 0 64 64" version="1.1" xmlns="http://www.w3.org/2000/svg" xmlns:xlink="http://www.w3.org/1999/xlink">
    <!-- Generator: Sketch 54.1 (76490) - https://sketchapp.com -->
    <title>数聚蜂巢-H</title>
    <desc>Created with Sketch.</desc>
    <defs>
        <linearGradient x1="9.86116187%" y1="43.1303399%" x2="100%" y2="62.051953%" id="linearGradient-1">
            <stop stop-color="#1E87F0" offset="0%"></stop>
            <stop stop-color="#40BCF9" stop-opacity="0" offset="100%"></stop>
        </linearGradient>
        <linearGradient x1="50%" y1="14.4042969%" x2="57.5938899%" y2="83.6489109%" id="linearGradient-2">
            <stop stop-color="#3D1BFF" offset="0%"></stop>
            <stop stop-color="#00A7E7" offset="100%"></stop>
        </linearGradient>
    </defs>
    <g id="数聚蜂巢-H" stroke="none" stroke-width="1" fill="none" fill-rule="evenodd">
        <g id="编组" transform="translate(0.000000, 10.000000)">
            <g id="编组-4复制-4" fill="url(#linearGradient-1)">
                <path d="M14.8740145,14.1340753 C17.3807937,5.95070254 24.9954663,0 34,0 C45.045695,0 54,8.954305 54,20 C54,31.045695 45.045695,40 34,40 L13,40 C5.82029825,40 0,34.1797017 0,27 C0,19.8202983 5.82029825,14 13,14 C13.6363871,14 14.2620941,14.0457273 14.8740145,14.1340753 Z" id="形状结合复制"></path>
            </g>
            <path d="M58,26 L58,32 C58,32.7025257 57.6314023,33.3535394 57.0289915,33.7149859 L52.0289915,36.7149859 C51.3956267,37.0950047 50.6043733,37.0950047 49.9710085,36.7149859 L45,33.7323808 L40.0289915,36.7149859 C39.3956267,37.0950047 38.6043733,37.0950047 37.9710085,36.7149859 L32.9710085,33.7149859 C32.3685977,33.3535394 32,32.7025257 32,32 L32,26 C32,25.2974743 32.3685977,24.6464606 32.9710085,24.2850141 L37.9710085,21.2850141 C38.6043733,20.9049953 39.3956267,20.9049953 40.0289915,21.2850141 L45,24.2676192 L49.9710085,21.2850141 C49.9861603,21.2759231 50.0014024,21.2670495 50.0167306,21.2583934 C50.0056624,21.1733558 50,21.0870735 50,21 L50,15 C50,14.2974743 50.3685977,13.6464606 50.9710085,13.2850141 L55.9710085,10.2850141 C56.6043733,9.90499528 57.3956267,9.90499528 58.0289915,10.2850141 L63.0289915,13.2850141 C63.6314023,13.6464606 64,14.2974743 64,15 L64,21 C64,21.7025257 63.6314023,22.3535394 63.0289915,22.7149859 L58.0289915,25.7149859 C58.0138397,25.7240769 57.9985976,25.7329505 57.9832694,25.7416066 C57.9943376,25.8266442 58,25.9129265 58,26 Z M46,26 L46,32 L51,35 L56,32 L56,26 L51,23 L46,26 Z M44,26 L39,23 L34,26 L34,32 L39,35 L44,32 L44,26 Z M57,12 L52,15 L52,21 L57,24 L62,21 L62,15 L57,12 Z" id="形状结合" fill="url(#linearGradient-2)" fill-rule="nonzero"></path>
        </g>
    </g>
</svg>