<?xml version="1.0" encoding="UTF-8"?>
<svg width="64px" height="64px" viewBox="0 0 64 64" version="1.1" xmlns="http://www.w3.org/2000/svg" xmlns:xlink="http://www.w3.org/1999/xlink">
    <!-- Generator: Sketch 54.1 (76490) - https://sketchapp.com -->
    <title>ATD安全</title>
    <desc>Created with Sketch.</desc>
    <defs>
        <linearGradient x1="50%" y1="0%" x2="56.5572866%" y2="97.2654113%" id="linearGradient-1">
            <stop stop-color="#3D1BFF" offset="0%"></stop>
            <stop stop-color="#00A7E7" offset="100%"></stop>
        </linearGradient>
        <linearGradient x1="50%" y1="17.3458726%" x2="57.5938899%" y2="80.8682153%" id="linearGradient-2">
            <stop stop-color="#3D1BFF" offset="0%"></stop>
            <stop stop-color="#00A7E7" offset="100%"></stop>
        </linearGradient>
    </defs>
    <g id="ATD安全" stroke="none" stroke-width="1" fill="none" fill-rule="evenodd">
        <g id="编组" transform="translate(0.000000, 10.000000)" fill-rule="nonzero">
            <path d="M50.0204719,37.9452177 C56.8749815,35.7107794 60.5312437,29.5171014 60.9768567,19.1309695 L50.0100576,14.1045199 L39.0440671,19.1305989 C39.5025407,29.5166429 43.1654528,35.7106793 50.0204719,37.9452177 Z M49.4703236,12.1518348 C49.6311753,12.0515405 49.8186997,11.9980344 50.0100576,11.9997995 C50.2014155,11.9980344 50.3889398,12.0515405 50.5497915,12.1518348 L63.0193139,17.8670326 L62.9998325,18.5293991 C62.6577116,30.16151 58.4891691,37.3688178 50.4807328,39.8979778 C50.3396058,39.9671735 50.1820545,40.0034017 50.0204742,40.0000516 C49.8588948,40.0034017 49.7013443,39.9671738 49.5602178,39.8979788 C41.5521834,37.36898 37.3766829,30.1623286 37.0203193,18.5306229 L37,17.8673998 L49.4703236,12.1518348 Z M49.0002648,22.2156047 C49.0002648,21.66332 49.44798,21.2156047 50.0002648,21.2156047 C50.5525495,21.2156047 51.0002648,21.66332 51.0002648,22.2156047 L51.0002648,28 C51.0002648,28.5522847 50.5525495,29 50.0002648,29 C49.44798,29 49.0002648,28.5522847 49.0002648,28 L49.0002648,22.2156047 Z" id="形状结合" fill="url(#linearGradient-1)"></path>
            <path d="M13,14 C5.82029825,14 -2.84217094e-14,19.8202983 -2.84217094e-14,27 C-2.84217094e-14,34.1797017 5.82029825,40 13,40 L34,40 C34.5522847,40 35,39.5522847 35,39 C35,38.4477153 34.5522847,38 34,38 L13,38 C6.92486775,38 2,33.0751322 2,27 C2,20.9248678 6.92486775,16 13,16 C13.8069629,16 14.6019922,16.0867253 15.3758632,16.257028 L16.3201831,16.4648406 L16.5596367,15.5280438 C18.579229,7.62694074 25.7283308,2 34,2 C39.3595183,2 44.3336113,4.35487122 47.7339979,8.36421491 C48.0912232,8.78541381 48.7222607,8.83727465 49.1434596,8.48004933 C49.5646585,8.12282401 49.6165194,7.49178649 49.259294,7.07058759 C45.4828324,2.61781953 39.953325,0 34,0 C25.125773,0 17.4153285,5.82809774 14.874065,14.1342107 C14.257205,14.0450846 13.6313752,14 13,14 Z" id="路径" fill="url(#linearGradient-2)"></path>
        </g>
    </g>
</svg>