<?xml version="1.0" encoding="UTF-8"?>
<svg width="64px" height="64px" viewBox="0 0 64 64" version="1.1" xmlns="http://www.w3.org/2000/svg" xmlns:xlink="http://www.w3.org/1999/xlink">
    <!-- Generator: Sketch 54.1 (76490) - https://sketchapp.com -->
    <title>yundun安全</title>
    <desc>Created with Sketch.</desc>
    <defs>
        <linearGradient x1="50%" y1="0%" x2="57.5938899%" y2="97.2654113%" id="linearGradient-1">
            <stop stop-color="#3D1BFF" offset="0%"></stop>
            <stop stop-color="#00A7E7" offset="100%"></stop>
        </linearGradient>
        <linearGradient x1="50%" y1="17.3458726%" x2="57.5938899%" y2="80.8682153%" id="linearGradient-2">
            <stop stop-color="#3D1BFF" offset="0%"></stop>
            <stop stop-color="#00A7E7" offset="100%"></stop>
        </linearGradient>
    </defs>
    <g id="yundun安全" stroke="none" stroke-width="1" fill="none" fill-rule="evenodd">
        <g id="编组-2" transform="translate(0.000000, 10.000000)" fill-rule="nonzero">
            <g id="编组" transform="translate(38.000000, 14.000000)" fill="url(#linearGradient-1)">
                <path d="M6.67352531,4.00022283 C3.84675908,5.99098024 2,9.27982327 2,13 C2,19.0751322 6.92486775,24 13,24 C15.7614237,24 18,21.7614237 18,19 C18,16.2385763 15.7614237,14 13,14 C9.13400675,14 6,10.8659932 6,7 C6,5.92649041 6.24165156,4.90942156 6.67352531,4.00022283 Z M13,2 C10.2385763,2 8,4.23857625 8,7 C8,9.76142375 10.2385763,12 13,12 C16.8659932,12 20,15.1340068 20,19 C20,20.0735096 19.7583484,21.0905784 19.3264747,21.9997772 C22.1532409,20.0090198 24,16.7201767 24,13 C24,6.92486775 19.0751322,2 13,2 Z M13,26 C5.82029825,26 0,20.1797017 0,13 C0,5.82029825 5.82029825,0 13,0 C20.1797017,0 26,5.82029825 26,13 C26,20.1797017 20.1797017,26 13,26 Z" id="形状结合"></path>
            </g>
            <path d="M13,14 C5.82029825,14 -2.84217094e-14,19.8202983 -2.84217094e-14,27 C-2.84217094e-14,34.1797017 5.82029825,40 13,40 L34,40 C34.5522847,40 35,39.5522847 35,39 C35,38.4477153 34.5522847,38 34,38 L13,38 C6.92486775,38 2,33.0751322 2,27 C2,20.9248678 6.92486775,16 13,16 C13.8069629,16 14.6019922,16.0867253 15.3758632,16.257028 L16.3201831,16.4648406 L16.5596367,15.5280438 C18.579229,7.62694074 25.7283308,2 34,2 C39.3595183,2 44.3336113,4.35487122 47.7339979,8.36421491 C48.0912232,8.78541381 48.7222607,8.83727465 49.1434596,8.48004933 C49.5646585,8.12282401 49.6165194,7.49178649 49.259294,7.07058759 C45.4828324,2.61781953 39.953325,0 34,0 C25.125773,0 17.4153285,5.82809774 14.874065,14.1342107 C14.257205,14.0450846 13.6313752,14 13,14 Z" id="路径" fill="url(#linearGradient-2)"></path>
        </g>
    </g>
</svg>