<?xml version="1.0" encoding="UTF-8"?>
<svg width="64px" height="64px" viewBox="0 0 64 64" version="1.1" xmlns="http://www.w3.org/2000/svg" xmlns:xlink="http://www.w3.org/1999/xlink">
    <!-- Generator: Sketch 54.1 (76490) - https://sketchapp.com -->
    <title>边缘计算-H</title>
    <desc>Created with Sketch.</desc>
    <defs>
        <linearGradient x1="9.86116187%" y1="43.1303399%" x2="100%" y2="62.051953%" id="linearGradient-1">
            <stop stop-color="#1E87F0" offset="0%"></stop>
            <stop stop-color="#40BCF9" stop-opacity="0" offset="100%"></stop>
        </linearGradient>
        <linearGradient x1="50%" y1="0%" x2="57.5938899%" y2="97.2654113%" id="linearGradient-2">
            <stop stop-color="#3D1BFF" offset="0%"></stop>
            <stop stop-color="#00A7E7" offset="100%"></stop>
        </linearGradient>
    </defs>
    <g id="边缘计算-H" stroke="none" stroke-width="1" fill="none" fill-rule="evenodd">
        <g transform="translate(0.000000, 10.000000)">
            <g id="编组-4复制-4" fill="url(#linearGradient-1)">
                <path d="M14.8740145,14.1340753 C17.3807937,5.95070254 24.9954663,0 34,0 C45.045695,0 54,8.954305 54,20 C54,31.045695 45.045695,40 34,40 L13,40 C5.82029825,40 0,34.1797017 0,27 C0,19.8202983 5.82029825,14 13,14 C13.6363871,14 14.2620941,14.0457273 14.8740145,14.1340753 Z" id="形状结合复制"></path>
            </g>
            <path d="M38,15 C38,14.4477153 38.4477153,14 39,14 L63,14 C63.5522847,14 64,14.4477153 64,15 L64,39 C64,39.5522847 63.5522847,40 63,40 L39,40 C38.4477153,40 38,39.5522847 38,39 L38,15 Z M40,16 L40,38 L62,38 L62,16 L40,16 Z M45,21 L45,19 C45,18.4477153 45.4477153,18 46,18 C46.5522847,18 47,18.4477153 47,19 L47,21 L49,21 C49.5522847,21 50,21.4477153 50,22 C50,22.5522847 49.5522847,23 49,23 L47,23 L47,25 C47,25.5522847 46.5522847,26 46,26 C45.4477153,26 45,25.5522847 45,25 L45,23 L43,23 C42.4477153,23 42,22.5522847 42,22 C42,21.4477153 42.4477153,21 43,21 L45,21 Z M53,23 C52.4477153,23 52,22.5522847 52,22 C52,21.4477153 52.4477153,21 53,21 L59,21 C59.5522847,21 60,21.4477153 60,22 C60,22.5522847 59.5522847,23 59,23 L53,23 Z M53,33 C52.4477153,33 52,32.5522847 52,32 C52,31.4477153 52.4477153,31 53,31 L59,31 C59.5522847,31 60,31.4477153 60,32 C60,32.5522847 59.5522847,33 59,33 L53,33 Z M56.0909091,30.2727273 C55.4884166,30.2727273 55,29.7843106 55,29.1818182 C55,28.5793257 55.4884166,28.0909091 56.0909091,28.0909091 C56.6934015,28.0909091 57.1818182,28.5793257 57.1818182,29.1818182 C57.1818182,29.7843106 56.6934015,30.2727273 56.0909091,30.2727273 Z M56.0909091,36.1818182 C55.4884166,36.1818182 55,35.6934015 55,35.0909091 C55,34.4884166 55.4884166,34 56.0909091,34 C56.6934015,34 57.1818182,34.4884166 57.1818182,35.0909091 C57.1818182,35.6934015 56.6934015,36.1818182 56.0909091,36.1818182 Z M46,30.5857864 L47.2928932,29.2928932 C47.6834175,28.9023689 48.3165825,28.9023689 48.7071068,29.2928932 C49.0976311,29.6834175 49.0976311,30.3165825 48.7071068,30.7071068 L47.4142136,32 L48.7071068,33.2928932 C49.0976311,33.6834175 49.0976311,34.3165825 48.7071068,34.7071068 C48.3165825,35.0976311 47.6834175,35.0976311 47.2928932,34.7071068 L46,33.4142136 L44.7071068,34.7071068 C44.3165825,35.0976311 43.6834175,35.0976311 43.2928932,34.7071068 C42.9023689,34.3165825 42.9023689,33.6834175 43.2928932,33.2928932 L44.5857864,32 L43.2928932,30.7071068 C42.9023689,30.3165825 42.9023689,29.6834175 43.2928932,29.2928932 C43.6834175,28.9023689 44.3165825,28.9023689 44.7071068,29.2928932 L46,30.5857864 Z" id="形状结合" fill="url(#linearGradient-2)" fill-rule="nonzero"></path>
        </g>
    </g>
</svg>