<?xml version="1.0" encoding="UTF-8"?>
<svg width="64px" height="64px" viewBox="0 0 64 64" version="1.1" xmlns="http://www.w3.org/2000/svg" xmlns:xlink="http://www.w3.org/1999/xlink">
    <!-- Generator: Sketch 54.1 (76490) - https://sketchapp.com -->
    <title>互联网金融复制 3</title>
    <desc>Created with Sketch.</desc>
    <defs>
        <linearGradient x1="112.185076%" y1="51.6392659%" x2="9.08227408%" y2="49.134349%" id="linearGradient-1">
            <stop stop-color="#FFFFFF" stop-opacity="0" offset="0%"></stop>
            <stop stop-color="#FFFFFF" stop-opacity="0.5" offset="100%"></stop>
        </linearGradient>
        <polygon id="path-2" points="0 0 55 0 55 35 19 35 19 58 0 58"></polygon>
    </defs>
    <g id="互联网金融复制-3" stroke="none" stroke-width="1" fill="none" fill-rule="evenodd">
        <g id="编组-4" transform="translate(3.000000, 3.000000)">
            <g id="编组-3" transform="translate(19.000000, 35.000000)">
                <rect id="矩形" fill="url(#linearGradient-1)" x="0" y="5" width="38" height="5"></rect>
                <rect id="矩形" stroke="#FFFFFF" stroke-width="2" x="1" y="1" width="36" height="21" rx="2"></rect>
                <path d="M5,17.5 L16.6370506,17.5 L5,17.5 Z M21,17.5 L26,17.5 L21,17.5 Z" id="形状结合" stroke="#FFFFFF" stroke-width="2" stroke-linecap="round" stroke-linejoin="round"></path>
            </g>
            <g id="Fill-1复制-2">
                <mask id="mask-3" fill="white">
                    <use xlink:href="#path-2"></use>
                </mask>
                <g id="蒙版"></g>
                <path d="M42.305,4.322 C42.315,4.328 42.317,4.338 42.327,4.345 C49.947,9.234 55,17.774 55,27.5 C55,27.654 54.991,27.806 54.989,27.959 C54.99,27.992 54.988,28.022 54.986,28.055 C54.798,37.55 49.801,45.86 42.327,50.655 C42.317,50.662 42.314,50.672 42.305,50.679 C42.244,50.717 42.18,50.75 42.119,50.789 C41.644,51.087 41.162,51.377 40.668,51.646 C40.653,51.655 40.637,51.665 40.623,51.673 C40.119,51.947 39.603,52.2 39.081,52.442 C38.943,52.507 38.804,52.569 38.666,52.63 C38.216,52.831 37.76,53.021 37.297,53.197 C37.212,53.229 37.129,53.265 37.044,53.296 C36.51,53.494 35.967,53.673 35.418,53.838 C35.28,53.879 35.141,53.916 35.003,53.956 C34.553,54.083 34.099,54.199 33.641,54.303 C33.511,54.333 33.383,54.365 33.253,54.393 C32.69,54.513 32.121,54.617 31.546,54.701 C31.436,54.718 31.325,54.729 31.216,54.743 C30.738,54.808 30.257,54.859 29.772,54.899 C29.612,54.913 29.451,54.925 29.29,54.936 C28.724,54.972 28.155,54.997 27.579,54.998 C27.561,54.998 27.543,55 27.522,55 C27.515,55 27.508,55 27.5,55 C27.346,55 27.195,54.991 27.041,54.988 C27.009,54.99 26.978,54.988 26.945,54.986 C26.81,54.983 26.675,54.98 26.54,54.976 C26.519,54.977 26.498,54.982 26.477,54.981 C26.427,54.979 26.378,54.973 26.327,54.971 C25.732,54.945 25.14,54.903 24.555,54.841 C24.45,54.83 24.346,54.813 24.241,54.801 C23.74,54.742 23.243,54.669 22.751,54.583 C22.604,54.558 22.456,54.532 22.309,54.504 C21.728,54.393 21.152,54.269 20.585,54.122 C20.546,54.112 20.508,54.1 20.469,54.089 C19.935,53.949 19.409,53.789 18.888,53.617 C18.745,53.57 18.602,53.521 18.46,53.472 C17.927,53.287 17.401,53.09 16.884,52.874 C16.861,52.864 16.838,52.856 16.815,52.847 C16.277,52.619 15.75,52.37 15.23,52.11 C15.096,52.043 14.963,51.975 14.83,51.905 C14.354,51.658 13.885,51.4 13.426,51.125 C13.38,51.098 13.333,51.073 13.287,51.045 C12.786,50.743 12.3,50.42 11.821,50.087 C11.767,50.05 11.711,50.019 11.657,49.981 C11.648,49.974 11.646,49.963 11.637,49.957 C4.741,45.076 0.194,37.104 0.014,28.056 C0.012,28.023 0.01,27.992 0.012,27.959 C0.01,27.806 -7.10542736e-15,27.654 -7.10542736e-15,27.5 C-7.10542736e-15,18.222 4.599,10.024 11.637,5.043 C11.646,5.037 11.648,5.026 11.657,5.02 C11.711,4.982 11.767,4.95 11.821,4.913 C12.3,4.58 12.786,4.258 13.286,3.955 C13.333,3.927 13.382,3.901 13.429,3.873 C13.887,3.6 14.355,3.342 14.829,3.096 C14.963,3.026 15.096,2.957 15.231,2.89 C15.751,2.63 16.277,2.381 16.814,2.154 C16.839,2.144 16.864,2.135 16.888,2.125 C17.403,1.909 17.928,1.713 18.458,1.529 C18.602,1.479 18.746,1.43 18.89,1.383 C19.41,1.211 19.936,1.051 20.469,0.911 C20.508,0.9 20.546,0.888 20.585,0.878 C21.152,0.731 21.727,0.607 22.308,0.496 C22.456,0.468 22.604,0.443 22.753,0.417 C23.245,0.331 23.74,0.258 24.241,0.199 C24.346,0.187 24.45,0.17 24.555,0.159 C25.14,0.097 25.731,0.055 26.326,0.03 C26.377,0.028 26.427,0.021 26.477,0.019 C26.498,0.018 26.519,0.024 26.541,0.024 C26.675,0.02 26.81,0.017 26.945,0.014 C26.977,0.013 27.009,0.01 27.041,0.012 C27.195,0.009 27.346,0 27.5,0 C27.508,0 27.515,0 27.524,0 C27.543,0 27.561,0.002 27.579,0.002 C28.155,0.004 28.724,0.028 29.29,0.064 C29.451,0.075 29.612,0.088 29.772,0.101 C30.257,0.141 30.738,0.192 31.216,0.257 C31.325,0.272 31.436,0.283 31.546,0.299 C32.12,0.384 32.689,0.487 33.252,0.607 C33.383,0.635 33.512,0.667 33.643,0.697 C34.1,0.802 34.553,0.917 35.003,1.045 C35.141,1.084 35.28,1.121 35.418,1.163 C35.967,1.328 36.51,1.506 37.044,1.704 C37.129,1.735 37.212,1.771 37.297,1.803 C37.759,1.979 38.215,2.169 38.664,2.369 C38.804,2.431 38.943,2.494 39.083,2.558 C39.604,2.801 40.12,3.054 40.623,3.328 C40.637,3.336 40.653,3.345 40.668,3.354 C41.162,3.624 41.643,3.913 42.119,4.211 C42.179,4.25 42.244,4.283 42.305,4.322 Z M43.989,27 L52.987,27 C52.822,18.409 48.415,10.857 41.766,6.361 C40.42,7.262 39,8.045 37.514,8.695 C41.584,13.883 43.88,20.263 43.989,27 Z M41.766,48.639 C48.156,44.318 52.478,37.175 52.953,29 L43.958,29 C43.649,35.369 41.38,41.376 37.514,46.305 C38.999,46.955 40.42,47.738 41.766,48.639 Z M39.731,49.878 C39.782,49.851 39.831,49.818 39.882,49.79 C38.696,49.058 37.448,48.434 36.157,47.905 C34.48,49.766 32.584,51.413 30.511,52.809 C30.651,52.792 30.793,52.782 30.933,52.764 C31.041,52.749 31.15,52.738 31.257,52.722 C31.785,52.645 32.308,52.549 32.827,52.438 C32.956,52.411 33.083,52.379 33.211,52.35 C33.624,52.256 34.034,52.151 34.44,52.036 C34.578,51.998 34.717,51.96 34.853,51.919 C35.354,51.769 35.851,51.605 36.341,51.424 C36.432,51.39 36.521,51.352 36.611,51.317 C37.025,51.159 37.433,50.989 37.839,50.81 C37.976,50.749 38.114,50.687 38.251,50.624 C38.727,50.401 39.2,50.17 39.663,49.918 C39.685,49.905 39.708,49.891 39.731,49.878 Z M28,52.035 C30.249,50.703 32.308,49.068 34.114,47.177 C32.142,46.56 30.094,46.188 28,46.067 L28,52.035 Z M28,29 L28,44.065 C30.592,44.205 33.121,44.702 35.536,45.542 C39.363,40.875 41.616,35.124 41.935,29 L28,29 Z M28,10.935 L28,27 L41.989,27 C41.877,20.506 39.586,14.377 35.551,9.453 C33.131,10.297 30.597,10.795 28,10.935 Z M28,2.965 L28,8.933 C30.094,8.812 32.142,8.44 34.114,7.823 C32.308,5.932 30.249,4.298 28,2.965 Z M30.933,2.237 C30.793,2.218 30.651,2.208 30.511,2.191 C32.584,3.587 34.48,5.234 36.157,7.095 C37.448,6.566 38.696,5.942 39.881,5.21 C39.831,5.182 39.782,5.149 39.731,5.122 C39.708,5.109 39.685,5.095 39.663,5.082 C39.2,4.831 38.727,4.599 38.251,4.377 C38.114,4.313 37.976,4.251 37.838,4.19 C37.434,4.011 37.026,3.842 36.614,3.684 C36.522,3.649 36.432,3.61 36.341,3.576 C35.85,3.395 35.354,3.232 34.853,3.081 C34.717,3.04 34.578,3.003 34.44,2.964 C34.034,2.849 33.624,2.745 33.211,2.65 C33.083,2.621 32.956,2.589 32.827,2.562 C32.308,2.451 31.785,2.356 31.257,2.278 C31.15,2.262 31.041,2.251 30.933,2.237 Z M26,8.979 L26,2.965 C23.659,4.352 21.524,6.066 19.666,8.057 C21.714,8.625 23.836,8.938 26,8.979 Z M26,27 L26,10.979 C23.343,10.932 20.742,10.502 18.252,9.72 C14.345,14.601 12.133,20.622 12.022,27 L26,27 Z M26,44.021 L26,29 L12.065,29 C12.377,35.008 14.552,40.658 18.251,45.281 C20.742,44.498 23.342,44.068 26,44.021 Z M26,52.035 L26,46.021 C23.836,46.062 21.714,46.375 19.666,46.944 C21.524,48.934 23.659,50.648 26,52.035 Z M23.106,52.615 C23.148,52.623 23.191,52.626 23.233,52.634 C21.153,51.202 19.255,49.516 17.584,47.614 C16.391,48.06 15.232,48.585 14.121,49.203 C14.187,49.244 14.25,49.291 14.317,49.331 C14.367,49.361 14.42,49.389 14.471,49.419 C14.887,49.668 15.312,49.901 15.741,50.125 C15.872,50.193 16.002,50.261 16.134,50.326 C16.611,50.564 17.093,50.792 17.584,51 C17.621,51.016 17.658,51.029 17.695,51.044 C18.158,51.237 18.628,51.413 19.102,51.578 C19.244,51.627 19.386,51.675 19.53,51.723 C19.999,51.877 20.471,52.021 20.95,52.147 C20.998,52.16 21.046,52.175 21.094,52.188 C21.616,52.323 22.145,52.437 22.678,52.539 C22.82,52.566 22.963,52.59 23.106,52.615 Z M12.288,47.966 C13.558,47.198 14.885,46.529 16.264,45.975 C12.546,41.105 10.366,35.231 10.063,29 L2.048,29 C2.498,36.765 6.42,43.598 12.288,47.966 Z M12.288,7.034 C6.17,11.589 2.171,18.824 2.013,27 L10.011,27 C10.118,20.402 12.322,14.147 16.239,9.016 C14.869,8.464 13.551,7.798 12.288,7.034 Z M14.317,5.669 C14.25,5.71 14.187,5.756 14.121,5.797 C15.232,6.416 16.391,6.941 17.584,7.386 C19.255,5.484 21.153,3.798 23.233,2.367 C23.191,2.374 23.148,2.378 23.106,2.385 C22.963,2.41 22.82,2.435 22.678,2.461 C22.146,2.563 21.617,2.677 21.095,2.812 C21.045,2.825 20.996,2.841 20.946,2.854 C20.469,2.981 19.997,3.124 19.53,3.278 C19.386,3.325 19.244,3.373 19.102,3.422 C18.628,3.587 18.158,3.764 17.695,3.957 C17.658,3.972 17.621,3.985 17.584,4 C17.093,4.208 16.611,4.436 16.134,4.674 C16.002,4.74 15.872,4.807 15.741,4.875 C15.312,5.099 14.887,5.332 14.471,5.581 C14.42,5.611 14.367,5.639 14.317,5.669 Z" fill="#FFFFFF" mask="url(#mask-3)"></path>
            </g>
        </g>
    </g>
</svg>