<?xml version="1.0" encoding="UTF-8"?>
<svg width="64px" height="64px" viewBox="0 0 64 64" version="1.1" xmlns="http://www.w3.org/2000/svg" xmlns:xlink="http://www.w3.org/1999/xlink">
    <!-- Generator: Sketch 54.1 (76490) - https://sketchapp.com -->
    <title>教育复制 3</title>
    <desc>Created with Sketch.</desc>
    <defs>
        <linearGradient x1="53.6886579%" y1="79.2076128%" x2="50%" y2="24.4897959%" id="linearGradient-1">
            <stop stop-color="#FFFFFF" stop-opacity="0" offset="0%"></stop>
            <stop stop-color="#FFFFFF" stop-opacity="0.5" offset="100%"></stop>
        </linearGradient>
    </defs>
    <g id="教育复制-3" stroke="none" stroke-width="1" fill="none" fill-rule="evenodd">
        <g id="编组-4" transform="translate(0.000000, 3.000000)">
            <g id="编组-3">
                <g id="编组-3复制-2">
                    <path d="M27.8304349,0.284079273 L1.91211772,18.1777266 C0.695960761,18.9349755 0.695960761,20.8286154 1.91211772,21.6806128 L14.0760265,30.1065043 L27.8304349,39.5739643 C28.4854798,40.1420119 29.514575,40.1420119 30.16962,39.5739643 L43.9240284,30.1065043 L56.0877178,21.6806128 C57.3040941,20.9230681 57.3040941,19.029724 56.0877178,18.1777266 L30.16962,0.284079273 C29.4209345,-0.0946930911 28.4854798,-0.0946930911 27.8304349,0.284079273 Z" id="路径" fill="url(#linearGradient-1)"></path>
                    <path d="M36.933689,45.1817284 C35.4465687,46.1945899 33.2158881,47.7138822 30.2416474,49.7396052 C29.7182238,50.0867983 29.1074153,50.0867983 28.7583526,49.7396052 L10.5233895,37.3199702 C9.82553683,36.7988752 9.82553683,35.5831225 10.5233895,35.1487409 C12.9943976,33.5330843 14.8476537,32.3213418 16.0831577,31.5135135 M27.8304349,0.284079273 L1.91211772,18.1777266 C0.695960761,18.9349755 0.695960761,20.8286154 1.91211772,21.6806128 L14.0760265,30.1065043 L27.8304349,39.5739643 C28.4854798,40.1420119 29.514575,40.1420119 30.16962,39.5739643 L43.9240284,30.1065043 L56.0877178,21.6806128 C57.3040941,20.9230681 57.3040941,19.029724 56.0877178,18.1777266 L30.16962,0.284079273 C29.4209345,-0.0946930911 28.4854798,-0.0946930911 27.8304349,0.284079273 Z" id="形状结合" stroke="#FFFFFF" stroke-width="2"></path>
                    <g id="编组-7" transform="translate(0.000000, 26.000000)" fill="#FFFFFF">
                        <path d="M3.99986979,0 C2.44451035,0 1,1.22211774 1,2.99986979 C1,4.77762185 2.22203093,5.99973959 3.99986979,5.99973959 C5.77762185,5.99973959 7,4.77762185 7,2.99986979 C7,1.22211774 5.55557645,0 3.99986979,0 Z" id="路径"></path>
                        <path d="M4.00010392,7 L0.896164562,27.5519948 C0.648738099,29.1902701 1.7762439,30.7189335 3.41451926,30.9663599 C3.56280362,30.9887551 3.71255852,31 3.8625245,31 L4.13666445,31 C5.7935187,31 7.13666445,29.6568542 7.13666445,28 C7.13666445,27.8500826 7.12542685,27.700376 7.1030461,27.5521385 L4.00010392,7 Z" id="路径"></path>
                    </g>
                </g>
            </g>
            <path d="M50,56 C42.8202983,56 37,50.1797017 37,43 C37,35.8202983 42.8202983,30 50,30 C57.1797017,30 63,35.8202983 63,43 C63,50.1797017 57.1797017,56 50,56 Z M57,43 L47,38 L47,48 L57,43 Z" id="形状结合" stroke="#FFFFFF" stroke-width="2"></path>
        </g>
    </g>
</svg>