<?xml version="1.0" encoding="UTF-8"?>
<svg width="64px" height="64px" viewBox="0 0 64 64" version="1.1" xmlns="http://www.w3.org/2000/svg" xmlns:xlink="http://www.w3.org/1999/xlink">
    <!-- Generator: Sketch 54.1 (76490) - https://sketchapp.com -->
    <title>传媒行业复制 5</title>
    <desc>Created with Sketch.</desc>
    <defs>
        <linearGradient x1="57.0158453%" y1="67.3628827%" x2="50%" y2="32.6371173%" id="linearGradient-1">
            <stop stop-color="#FFFFFF" stop-opacity="0" offset="0%"></stop>
            <stop stop-color="#FFFFFF" stop-opacity="0.5" offset="100%"></stop>
        </linearGradient>
    </defs>
    <g id="传媒行业复制-5" stroke="none" stroke-width="1" fill="none" fill-rule="evenodd">
        <g id="编组-3" transform="translate(4.000000, 5.000000)">
            <path d="M0,22 L33,22 L33,55 L0,55 L0,22 Z M33,38.5 L56,22 L56,55 L33,38.5 Z" id="形状结合" fill="url(#linearGradient-1)"></path>
            <rect id="矩形复制" stroke="#FFFFFF" stroke-width="2" x="1" y="23" width="31" height="31"></rect>
            <path d="M44.5,28.715537 L29.9481026,49 L59.0518974,49 L44.5,28.715537 Z" id="三角形复制" stroke="#FFFFFF" stroke-width="2" transform="translate(44.500000, 38.500000) scale(-1, 1) rotate(-270.000000) translate(-44.500000, -38.500000) "></path>
            <path d="M8.5,23 C4.35786438,23 1,19.6421356 1,15.5 C1,11.3578644 4.35786438,8 8.5,8 C12.6421356,8 16,11.3578644 16,15.5 C16,19.6421356 12.6421356,23 8.5,23 Z M27.5,23 C21.1487254,23 16,17.8512746 16,11.5 C16,5.14872538 21.1487254,0 27.5,0 C33.8512746,0 39,5.14872538 39,11.5 C39,17.8512746 33.8512746,23 27.5,23 Z" id="形状结合" stroke="#FFFFFF" stroke-width="2"></path>
        </g>
    </g>
</svg>