<?xml version="1.0" encoding="UTF-8"?>
<svg width="64px" height="64px" viewBox="0 0 64 64" version="1.1" xmlns="http://www.w3.org/2000/svg" xmlns:xlink="http://www.w3.org/1999/xlink">
    <!-- Generator: Sketch 54.1 (76490) - https://sketchapp.com -->
    <title>跨境电商复制 4</title>
    <desc>Created with Sketch.</desc>
    <defs>
        <linearGradient x1="58.2444971%" y1="114.493305%" x2="50%" y2="3.061617e-15%" id="linearGradient-1">
            <stop stop-color="#FFFFFF" stop-opacity="0" offset="0%"></stop>
            <stop stop-color="#FFFFFF" stop-opacity="0.5" offset="100%"></stop>
        </linearGradient>
        <polygon id="path-2" points="0.76821472 0.949040234 36.2682147 0.949040234 37.7682147 0.949040234 37.7682147 26.9490402 0.76821472 26.9490402"></polygon>
    </defs>
    <g id="跨境电商复制-4" stroke="none" stroke-width="1" fill="none" fill-rule="evenodd">
        <g id="编组-5" transform="translate(1.000000, 3.000000)">
            <circle id="椭圆形复制-2" fill="url(#linearGradient-1)" cx="29.5" cy="26.5" r="26.5"></circle>
            <g id="编组-4" transform="translate(0.000000, 5.000000)">
                <polyline id="路径-4" stroke="#FFFFFF" stroke-width="2" stroke-linecap="round" points="17 42 7.5 2 0.5 3.55548924e-14"></polyline>
                <g id="编组-3" transform="translate(9.000000, 8.000000)" stroke="#FFFFFF" stroke-width="2">
                    <path d="M0,0 L45,0 C47.209139,-4.05812251e-16 49,1.790861 49,4 L49,17.639087 C49,19.3500685 47.9117625,20.8715933 46.2925754,21.4244864 L8,34.5 L0,0 Z M44,43 C41.2385763,43 39,40.7614237 39,38 C39,35.2385763 41.2385763,33 44,33 C46.7614237,33 49,35.2385763 49,38 C49,40.7614237 46.7614237,43 44,43 Z M14,43 C11.2385763,43 9,40.7614237 9,38 C9,35.2385763 11.2385763,33 14,33 C16.7614237,33 19,35.2385763 19,38 C19,40.7614237 16.7614237,43 14,43 Z" id="形状结合"></path>
                </g>
                <g id="Fill-1" transform="translate(32.324714, 21.977488) rotate(-19.000000) translate(-32.324714, -21.977488) translate(13.324714, 8.477488)">
                    <mask id="mask-3" fill="white">
                        <use xlink:href="#path-2"></use>
                    </mask>
                    <g id="蒙版"></g>
                    <path d="M30.9197147,31.1038402 C30.8407147,31.1828402 30.7547147,31.2488402 30.6747147,31.3258402 L26.7187147,27.3698402 C29.6267147,24.2698402 31.4657147,20.4288402 32.0727147,16.3288402 C33.2087147,16.7368402 34.3857147,17.0208402 35.5817147,17.1978402 C36.2547147,22.1318402 34.7127147,27.3108402 30.9197147,31.1038402 L30.9197147,31.1038402 Z M15.2427147,35.4248402 C15.0947147,34.8328402 14.9197147,34.2498402 14.7127147,33.6748402 C18.6047147,33.1018402 22.2657147,31.4158402 25.2817147,28.7618402 L29.1427147,32.6228402 C25.0887147,35.6698402 19.9617147,36.6038402 15.2427147,35.4248402 L15.2427147,35.4248402 Z M13.9027147,31.7628402 C13.2327147,30.4138402 12.3957147,29.1508402 11.3987147,27.9978402 L17.9587147,21.4378402 L23.8667147,27.3458402 C21.0257147,29.8128402 17.5657147,31.3288402 13.9027147,31.7628402 L13.9027147,31.7628402 Z M12.6207147,34.5328402 C12.2147147,34.3538402 11.8127147,34.1668402 11.4207147,33.9558402 C11.3837147,33.9358402 11.3487147,33.9118402 11.3117147,33.8908402 C11.7577147,33.8998402 12.2037147,33.8928402 12.6497147,33.8738402 C12.7577147,34.1448402 12.8707147,34.4148402 12.9637147,34.6918402 C12.8477147,34.6438402 12.7357147,34.5828402 12.6207147,34.5328402 L12.6207147,34.5328402 Z M8.05571472,31.5288402 C8.02271472,31.4988402 7.98871472,31.4698402 7.95671472,31.4398402 L9.98271472,29.4138402 C10.6447147,30.1928402 11.2317147,31.0228402 11.7287147,31.9038402 C10.4937147,31.9038402 9.26371472,31.7758402 8.05571472,31.5288402 L8.05571472,31.5288402 Z M6.57771472,29.9898402 C6.52971472,29.9328402 6.47771472,29.8778402 6.43071472,29.8208402 C6.18571472,28.5858402 6.06771472,27.3288402 6.08071472,26.0678402 C6.97471472,26.6128402 7.81371472,27.2518402 8.59571472,27.9718402 L6.57771472,29.9898402 Z M4.34871472,22.9888402 C3.92071472,22.8208402 3.48671472,22.6738402 3.04771472,22.5398402 C2.19771472,18.0778402 3.21471472,13.3408402 6.06671472,9.54584023 L9.21971472,12.6998402 C6.62971472,15.6428402 4.96071472,19.1998402 4.34871472,22.9888402 L4.34871472,22.9888402 Z M4.07771472,25.8668402 C3.98271472,25.6428402 3.88671472,25.4198402 3.80271472,25.1938402 C3.76371472,25.0898402 3.72971472,24.9848402 3.69271472,24.8798402 C3.83771472,24.9388402 3.98071472,25.0018402 4.12371472,25.0638402 C4.10771472,25.3318402 4.08271472,25.5988402 4.07771472,25.8668402 L4.07771472,25.8668402 Z M7.58571472,7.76984023 C11.1277147,4.22784023 15.8777147,2.64484023 20.5087147,2.99684023 C20.7187147,4.00384023 21.0027147,4.99384023 21.3787147,5.95084023 C17.3797147,6.59784023 13.6417147,8.42084023 10.6117147,11.2628402 L7.36371472,8.01484023 C7.44071472,7.93484023 7.50671472,7.84784023 7.58571472,7.76984023 L7.58571472,7.76984023 Z M16.5447147,20.0238402 L10.0097147,26.5578402 C8.86471472,25.4948402 7.60271472,24.5948402 6.24471472,23.8688402 C6.71171472,20.2818402 8.21671472,16.8998402 10.6357147,14.1148402 L16.5447147,20.0238402 Z M22.2707147,7.84384023 C22.9967147,9.20184023 23.8967147,10.4638402 24.9597147,11.6088402 L17.9587147,18.6098402 L12.0257147,12.6768402 C14.8987147,9.99984023 18.4677147,8.33884023 22.2707147,7.84384023 L22.2707147,7.84384023 Z M23.7667147,3.57184023 C23.8667147,3.59984023 23.9667147,3.62684023 24.0657147,3.65784023 C24.5147147,3.79284023 24.9587147,3.94784023 25.3967147,4.12284023 C25.4677147,4.15084023 25.5377147,4.18384023 25.6087147,4.21284023 C25.9967147,4.37484023 26.3787147,4.55284023 26.7557147,4.74684023 C26.8417147,4.78984023 26.9287147,4.83184023 27.0137147,4.87584023 C27.4317147,5.09984023 27.8417147,5.34184023 28.2427147,5.60284023 C28.3227147,5.65584023 28.4007147,5.71084023 28.4807147,5.76484023 C28.5747147,5.82884023 28.6637147,5.90284023 28.7567147,5.96784023 C28.7767147,6.01284023 28.7947147,6.05884023 28.8147147,6.10384023 C27.0597147,5.73684023 25.2597147,5.62484023 23.4617147,5.73084023 C23.1187147,4.94084023 22.8377147,4.12684023 22.6257147,3.29284023 C23.0087147,3.37284023 23.3897147,3.46484023 23.7667147,3.57184023 L23.7667147,3.57184023 Z M26.3737147,10.1948402 C25.6557147,9.41484023 25.0167147,8.57784023 24.4727147,7.68484023 C25.8237147,7.67084023 27.1697147,7.80084023 28.4857147,8.08284023 L26.3737147,10.1948402 Z M26.3987147,12.9978402 C27.5517147,13.9948402 28.8147147,14.8318402 30.1637147,15.5008402 C29.7037147,19.3798402 28.0307147,23.0288402 25.3047147,25.9558402 L19.3727147,20.0238402 L26.3987147,12.9978402 Z M29.9027147,9.49484023 C30.1707147,10.7498402 30.2987147,12.0348402 30.2987147,13.3238402 C29.4207147,12.8278402 28.5927147,12.2418402 27.8147147,11.5828402 L29.9027147,9.49484023 Z M32.2947147,9.35284023 C32.5227147,9.64684023 32.7467147,9.94184023 32.9517147,10.2468402 C33.0087147,10.3308402 33.0637147,10.4168402 33.1187147,10.5008402 C33.3837147,10.9118402 33.6337147,11.3278402 33.8587147,11.7538402 C33.8677147,11.7698402 33.8747147,11.7868402 33.8827147,11.8028402 C34.1007147,12.2188402 34.2937147,12.6448402 34.4737147,13.0748402 C34.5107147,13.1648402 34.5487147,13.2518402 34.5847147,13.3418402 C34.7577147,13.7788402 34.9127147,14.2198402 35.0477147,14.6668402 C35.0707147,14.7438402 35.0897147,14.8208402 35.1107147,14.8968402 C35.1307147,14.9658402 35.1437147,15.0378402 35.1627147,15.1068402 C34.1717147,14.9168402 33.2037147,14.6258402 32.2667147,14.2538402 C32.3437147,12.5458402 32.2287147,10.8378402 31.8807147,9.17184023 C32.0197147,9.23184023 32.1587147,9.28984023 32.2947147,9.35284023 L32.2947147,9.35284023 Z M37.4647147,16.2538402 C37.4617147,16.2148402 37.4647147,16.1768402 37.4577147,16.1378402 C37.4487147,16.0888402 37.4357147,16.0408402 37.4267147,15.9928402 C37.4087147,15.8998402 37.3867147,15.8078402 37.3677147,15.7148402 C37.2737147,15.2588402 37.1637147,14.8068402 37.0367147,14.3598402 C37.0107147,14.2678402 36.9877147,14.1738402 36.9597147,14.0828402 C36.8097147,13.5848402 36.6367147,13.0948402 36.4457147,12.6128402 C36.4027147,12.5048402 36.3567147,12.3988402 36.3127147,12.2918402 C36.1157147,11.8208402 35.9037147,11.3568402 35.6677147,10.9028402 C35.6527147,10.8748402 35.6407147,10.8448402 35.6257147,10.8158402 C35.3757147,10.3408402 35.0967147,9.87984023 34.8047147,9.42584023 C34.7397147,9.32584023 34.6747147,9.22584023 34.6077147,9.12584023 C34.3337147,8.71784023 34.0477147,8.31584023 33.7387147,7.92784023 C33.7317147,7.91784023 33.7187147,7.91584023 33.7107147,7.90584023 C33.2827147,7.37184023 32.8297147,6.85084023 32.3337147,6.35584023 C32.2337147,6.25584023 32.1257147,6.17184023 32.0237147,6.07584023 C31.9717147,6.01484023 31.9127147,5.96484023 31.8487147,5.91684023 C31.3447147,5.44684023 30.8217147,5.01184023 30.2797147,4.60884023 C30.2377147,4.56284023 30.1947147,4.51684023 30.1437147,4.47984023 C29.9677147,4.35184023 29.7857147,4.23484023 29.6067147,4.11384023 C29.5137147,4.04984023 29.4217147,3.98484023 29.3287147,3.92384023 C28.8827147,3.63384023 28.4277147,3.36484023 27.9617147,3.11684023 C27.8587147,3.06084023 27.7547147,3.01084023 27.6517147,2.95784023 C27.2407147,2.74984023 26.8227147,2.55484023 26.3987147,2.37684023 C26.3097147,2.33984023 26.2227147,2.29884023 26.1327147,2.26284023 C25.6487147,2.06984023 25.1557147,1.89884023 24.6577147,1.74784023 C24.5397147,1.71084023 24.4207147,1.67884023 24.3027147,1.64584023 C23.8597147,1.52084023 23.4117147,1.41084023 22.9597147,1.31784023 C22.8797147,1.30184023 22.8017147,1.28184023 22.7227147,1.26584023 C22.3047147,1.18684023 21.8837147,1.11984023 21.4597147,1.06884023 C21.4217147,1.06384023 21.3867147,1.06884023 21.3497147,1.06884023 C15.9427147,0.454840234 10.3177147,2.20784023 6.17071472,6.35584023 C5.87271472,6.65384023 5.60571472,6.97084023 5.33071472,7.28484023 C5.27371472,7.33384023 5.22671472,7.39084023 5.18071472,7.45184023 C1.32071472,11.9748402 -0.00628528027,17.9068402 1.19771472,23.4078402 C1.20171472,23.4488402 1.19971472,23.4898402 1.20971472,23.5318402 C1.24471472,23.6918402 1.30271472,23.8438402 1.34271472,24.0018402 C1.44071472,24.3858402 1.54571472,24.7668402 1.66871472,25.1448402 C1.74871472,25.3928402 1.83571472,25.6368402 1.92571472,25.8808402 C2.06071472,26.2448402 2.20871472,26.6028402 2.36671472,26.9578402 C2.47371472,27.1978402 2.58071472,27.4358402 2.69771472,27.6708402 C2.87271472,28.0238402 3.06571472,28.3678402 3.26471472,28.7098402 C3.39371472,28.9318402 3.51871472,29.1568402 3.65671472,29.3738402 C3.87971472,29.7218402 4.12471472,30.0588402 4.37271472,30.3948402 C4.48771472,30.5498402 4.58471472,30.7158402 4.70471472,30.8678402 C4.71871472,30.8858402 4.73671472,30.8938402 4.75271472,30.9108402 C5.05871472,31.2968402 5.39171472,31.6668402 5.73271472,32.0338402 C5.78071472,32.0978402 5.82971472,32.1568402 5.89071472,32.2078402 C5.98771472,32.3098402 6.07171472,32.4178402 6.17071472,32.5178402 C6.37171472,32.7188402 6.58771472,32.8938402 6.79571472,33.0828402 C6.82771472,33.1208402 6.84771472,33.1628402 6.88671472,33.1978402 C6.98771472,33.2888402 7.10071472,33.3628402 7.20371472,33.4518402 C7.50971472,33.7148402 7.82371472,33.9638402 8.14271472,34.2048402 C8.35471472,34.3648402 8.56571472,34.5258402 8.78371472,34.6758402 C9.13471472,34.9168402 9.49371472,35.1368402 9.85671472,35.3518402 C10.0597147,35.4718402 10.2587147,35.5998402 10.4657147,35.7118402 C10.9207147,35.9578402 11.3857147,36.1748402 11.8567147,36.3798402 C11.9837147,36.4358402 12.1057147,36.5028402 12.2337147,36.5558402 C12.8407147,36.8038402 13.4577147,37.0178402 14.0827147,37.1988402 C14.1077147,37.2068402 14.1327147,37.2178402 14.1587147,37.2248402 C14.1857147,37.2328402 14.2117147,37.2318402 14.2397147,37.2368402 C20.0217147,38.8598402 26.4277147,37.6138402 31.2377147,33.5088402 C31.2987147,33.4618402 31.3547147,33.4168402 31.4047147,33.3588402 C31.7177147,33.0838402 32.0357147,32.8168402 32.3337147,32.5178402 C36.7597147,28.0928402 38.4607147,21.9848402 37.4647147,16.2538402 L37.4647147,16.2538402 Z" fill="#FFFFFF" mask="url(#mask-3)" transform="translate(19.254294, 19.437558) rotate(4.000000) translate(-19.254294, -19.437558) "></path>
                </g>
            </g>
        </g>
    </g>
</svg>